<svg width="100" height="100" viewBox="0 0 100 100" fill="none" xmlns="http://www.w3.org/2000/svg">
<path d="M81.0001 54.1668C80.0834 54.1668 79.1251 53.8751 78.2084 53.6668C76.3521 53.2577 74.5278 52.7146 72.75 52.0418C70.8171 51.3386 68.6923 51.3751 66.7847 52.1443C64.877 52.9135 63.3212 54.3611 62.4167 56.2084L61.5001 58.0834C57.4417 55.8258 53.7125 53.0219 50.4167 49.7501C47.1449 46.4543 44.341 42.7251 42.0834 38.6668L43.8334 37.5001C45.6807 36.5956 47.1283 35.0398 47.8975 33.1321C48.6667 31.2245 48.7033 29.0997 48.0001 27.1668C47.3385 25.3852 46.7956 23.5618 46.3751 21.7084C46.1667 20.7918 46.0001 19.8334 45.8751 18.8751C45.3691 15.9402 43.8318 13.2824 41.5401 11.3803C39.2485 9.47817 36.353 8.4568 33.3751 8.5001H20.8751C19.0794 8.48324 17.3011 8.85349 15.6613 9.58565C14.0216 10.3178 12.5588 11.3947 11.3727 12.7429C10.1865 14.0912 9.30478 15.6792 8.7875 17.3989C8.27023 19.1186 8.12955 20.9295 8.37505 22.7084C10.5948 40.1642 18.5668 56.3829 31.0319 68.8028C43.497 81.2226 59.7447 89.1356 77.2084 91.2918H78.7917C81.8643 91.2963 84.8309 90.169 87.1251 88.1251C88.4432 86.9461 89.4962 85.5008 90.2145 83.8848C90.9328 82.2687 91.2999 80.5186 91.2917 78.7501V66.2501C91.2407 63.3559 90.1867 60.5691 88.3098 58.3654C86.4329 56.1617 83.8493 54.6777 81.0001 54.1668ZM83.0834 79.1668C83.0826 79.7584 82.9559 80.343 82.7116 80.8819C82.4674 81.4207 82.1112 81.9013 81.6667 82.2918C81.2025 82.696 80.6583 82.9977 80.0695 83.1772C79.4808 83.3567 78.8608 83.4099 78.2501 83.3334C62.6455 81.3326 48.151 74.1938 37.053 63.043C25.955 51.8922 18.8851 37.364 16.9584 21.7501C16.8921 21.1398 16.9502 20.5223 17.1292 19.9351C17.3083 19.3478 17.6045 18.803 18.0001 18.3334C18.3905 17.889 18.8711 17.5328 19.41 17.2885C19.9488 17.0442 20.5335 16.9175 21.1251 16.9168H33.6251C34.594 16.8952 35.5401 17.2121 36.3007 17.8129C37.0612 18.4137 37.5884 19.2608 37.7917 20.2084C37.9584 21.3473 38.1667 22.4723 38.4167 23.5834C38.8981 25.7799 39.5386 27.9384 40.3334 30.0418L34.5001 32.7501C34.0013 32.9789 33.5526 33.304 33.1799 33.7068C32.8071 34.1095 32.5176 34.5818 32.3278 35.0967C32.1381 35.6117 32.052 36.159 32.0744 36.7073C32.0968 37.2556 32.2273 37.794 32.4584 38.2918C38.4551 51.1366 48.7802 61.4618 61.6251 67.4584C62.6395 67.8752 63.7773 67.8752 64.7917 67.4584C65.3114 67.2726 65.7889 66.9853 66.1966 66.6134C66.6043 66.2414 66.9341 65.7922 67.1667 65.2918L69.7501 59.4584C71.9041 60.2288 74.1025 60.8688 76.3334 61.3751C77.4445 61.6251 78.5695 61.8334 79.7084 62.0001C80.656 62.2034 81.5031 62.7307 82.1039 63.4912C82.7047 64.2517 83.0216 65.1978 83.0001 66.1668L83.0834 79.1668Z" fill="white"/>
</svg>
